# xmcd
#
# Track frame offsets: 
#        150
#        28977
#        40232
#        49597
#        61857
#        71822
#        83752
#        92802
#        103250
#        117390
#        130390
#        143537
#        156177
#        168577
#        180535
#        194472
#        207562
#        220287
#        232865
#        244660
#
# Disc length: 3435 seconds
#
# Revision: 0
# Processed by: cddbd v1.5.1PL0 Copyright (c) Steve Scherf et al.
# Submitted via: ExactAudioCopy v0.95a4
#
DISCID=250d6914
DTITLE=Stevie Wonder - Wonderful
DYEAR=1900
DGENRE=
TTITLE0=Fingertips
TTITLE1=I call it pretty music, but the old people call it the blues
TTITLE2=Contract on Love
TTITLE3=Workout Stevie, Workout
TTITLE4=Sastles in the Sand
TTITLE5=Hey Harmonica Man
TTITLE6=Kiss Me Baby
TTITLE7=Happy Street
TTITLE8=High Heel Sneakers
TTITLE9=Music Talk
TTITLE10=Uptight
TTITLE11=Ain't that Asking for Trouble
TTITLE12=Lve a Gogo
TTITLE13=Nothing's too good for my baby
TTITLE14=Blowin' in the wind
TTITLE15=Thank you Love
TTITLE16=A place in the sun
TTITLE17=Travelin' Man
TTITLE18=I was Made to Love Her
TTITLE19=I'm Wondering
EXTD=
EXTT0=
EXTT1=
EXTT2=
EXTT3=
EXTT4=
EXTT5=
EXTT6=
EXTT7=
EXTT8=
EXTT9=
EXTT10=
EXTT11=
EXTT12=
EXTT13=
EXTT14=
EXTT15=
EXTT16=
EXTT17=
EXTT18=
EXTT19=
PLAYORDER=
